<mxfile host="app.diagrams.net" modified="2023-12-31T05:23:45.061Z" agent="Mozilla/5.0 (Windows NT 10.0; Win64; x64) AppleWebKit/537.36 (KHTML, like Gecko) Chrome/120.0.0.0 Safari/537.36" etag="b28clFc8iqkweVyur8BU" version="22.1.16" type="github">
  <diagram name="第 1 页" id="x_wlSYk6Ch3LkXY5QBWc">
    <mxGraphModel dx="1114" dy="827" grid="1" gridSize="10" guides="1" tooltips="1" connect="1" arrows="1" fold="1" page="1" pageScale="1" pageWidth="827" pageHeight="1169" math="0" shadow="0">
      <root>
        <mxCell id="0" />
        <mxCell id="1" parent="0" />
        <mxCell id="Jbd0tGD0g_0H_KgzuXTf-7" value="" style="rounded=0;orthogonalLoop=1;jettySize=auto;html=1;" parent="1" source="Jbd0tGD0g_0H_KgzuXTf-5" target="Jbd0tGD0g_0H_KgzuXTf-6" edge="1">
          <mxGeometry relative="1" as="geometry" />
        </mxCell>
        <mxCell id="Jbd0tGD0g_0H_KgzuXTf-5" value="前端知识体系" style="ellipse;whiteSpace=wrap;html=1;" parent="1" vertex="1">
          <mxGeometry x="260" y="320" width="120" height="80" as="geometry" />
        </mxCell>
        <mxCell id="Jbd0tGD0g_0H_KgzuXTf-9" value="" style="rounded=0;orthogonalLoop=1;jettySize=auto;html=1;" parent="1" source="Jbd0tGD0g_0H_KgzuXTf-6" target="Jbd0tGD0g_0H_KgzuXTf-8" edge="1">
          <mxGeometry relative="1" as="geometry" />
        </mxCell>
        <mxCell id="Jbd0tGD0g_0H_KgzuXTf-12" value="" style="rounded=0;orthogonalLoop=1;jettySize=auto;html=1;" parent="1" source="Jbd0tGD0g_0H_KgzuXTf-6" target="Jbd0tGD0g_0H_KgzuXTf-11" edge="1">
          <mxGeometry relative="1" as="geometry" />
        </mxCell>
        <mxCell id="Jbd0tGD0g_0H_KgzuXTf-6" value="JavaScript" style="whiteSpace=wrap;html=1;rounded=1;" parent="1" vertex="1">
          <mxGeometry x="430" y="330" width="120" height="60" as="geometry" />
        </mxCell>
        <mxCell id="Jbd0tGD0g_0H_KgzuXTf-8" value="作用域/上下文" style="whiteSpace=wrap;html=1;rounded=1;" parent="1" vertex="1">
          <mxGeometry x="580" y="260" width="120" height="60" as="geometry" />
        </mxCell>
        <mxCell id="Jbd0tGD0g_0H_KgzuXTf-11" value="异步/Promise" style="whiteSpace=wrap;html=1;rounded=1;" parent="1" vertex="1">
          <mxGeometry x="580" y="390" width="120" height="60" as="geometry" />
        </mxCell>
      </root>
    </mxGraphModel>
  </diagram>
</mxfile>
